# xmcd CD database file
#
# Track frame offsets:
#	150
#	36532
#	54043
#	81122
#	121140
#	141092
#	163299
#	196240
#	237225
#
# Disc length: 3383 seconds
#
# Revision: 0
# Processed by: cddbd v1.5.2PL0 Copyright (c) Steve Scherf et al.
# Submitted via: CDex 1.70beta2
#
DISCID=740d3509
DTITLE=Matt Marantz - symmetry quartet
DYEAR=1900
DGENRE=Jazz
TTITLE0=The Narrow Path - Marantz
TTITLE1=A Brother's Love - Marantz 
TTITLE2=Entanglement - Harris
TTITLE3=Riverside - Marantz
TTITLE4=Patience - Marantz
TTITLE5=East 9th Street - Harris
TTITLE6=Sketchbook
TTITLE7=Id - Samama
TTITLE8=Hotaru - Samama
EXTD=
EXTT0=
EXTT1=
EXTT2=
EXTT3=
EXTT4=
EXTT5=
EXTT6=
EXTT7=
EXTT8=
PLAYORDER=
